<svg xmlns="http://www.w3.org/2000/svg" viewBox="0 0 300 250">
  <!-- Complex Running Pitbull - Professional Coloring Page -->
  <rect x="0" y="0" width="300" height="250" fill="#ffffff"/>

  <!-- Detailed body with muscle definition - running pose -->
  <path d="M 75 165
           Q 68 178 82 190
           Q 95 202 115 200
           T 150 198
           T 185 205
           Q 205 215 215 205
           Q 220 195 215 185
           Q 210 175 195 178
           L 158 185 Z"
        fill="none" stroke="#222222" stroke-width="2.5" stroke-linecap="round" stroke-linejoin="round"/>

  <!-- Muscle definition lines -->
  <path d="M 88 182 Q 94 184 100 182" fill="none" stroke="#222222" stroke-width="1.2"/>
  <path d="M 108 192 Q 114 190 120 192" fill="none" stroke="#222222" stroke-width="1.2"/>
  <path d="M 130 202 Q 136 200 142 202" fill="none" stroke="#222222" stroke-width="1.2"/>
  <path d="M 160 203 Q 166 201 172 203" fill="none" stroke="#222222" stroke-width="1.2"/>

  <!-- Head focused intense -->
  <ellipse cx="150" cy="100" rx="44" ry="40" fill="none" stroke="#222222" stroke-width="2.5"/>

  <!-- Snout -->
  <ellipse cx="158" cy="125" rx="18" ry="14" fill="none" stroke="#222222" stroke-width="2.5"/>

  <!-- Ears back in motion -->
  <path d="M 122 95
           Q 110 78 118 65
           Q 126 58 136 68
           L 138 88"
        fill="none" stroke="#222222" stroke-width="2.5" stroke-linecap="round"/>
  <path d="M 172 100
           Q 188 83 180 68
           Q 172 58 162 68
           L 160 88"
        fill="none" stroke="#222222" stroke-width="2.5" stroke-linecap="round"/>

  <!-- Eyes focused -->
  <ellipse cx="133" cy="108" rx="6" ry="7" fill="none" stroke="#222222" stroke-width="2"/>
  <circle cx="135" cy="109" r="3" fill="#222222"/>

  <ellipse cx="167" cy="108" rx="6" ry="7" fill="none" stroke="#222222" stroke-width="2"/>
  <circle cx="169" cy="109" r="3" fill="#222222"/>

  <!-- Focus lines -->
  <path d="M 125 103 L 133 108 L 125 113" fill="none" stroke="#222222" stroke-width="1" opacity="0.4"/>
  <path d="M 175 108 L 183 103 L 183 113" fill="none" stroke="#222222" stroke-width="1" opacity="0.4"/>

  <!-- Nose -->
  <ellipse cx="158" cy="135" rx="16" ry="11" fill="none" stroke="#222222" stroke-width="2.5"/>
  <ellipse cx="156" cy="133" rx="5" ry="3" fill="#222222"/>

  <!-- Panting mouth intense -->
  <path d="M 130 145 Q 155 170 180 145" fill="none" stroke="#222222" stroke-width="3" stroke-linecap="round"/>

  <!-- Tongue detailed -->
  <path d="M 160 168 Q 155 185 163 195 Q 170 185 165 168" fill="none" stroke="#222222" stroke-width="2"/>
  <path d="M 155 182 Q 150 192 160 195 Q 170 192 165 182" fill="none" stroke="#222222" stroke-width="1.5"/>

  <!-- Front legs full extension -->

  <!-- Front left leg extended forward -->
  <path d="M 115 190
           L 108 240
           Q 108 248 116 248
           L 124 248
           Q 132 248 132 240
           L 132 190"
        fill="none" stroke="#222222" stroke-width="2.5" transform="rotate(-22, 122, 215)"/>

  <!-- Paw pads detailed -->
  <ellipse cx="114" cy="248" rx="9" ry="4" fill="none" stroke="#222222" stroke-width="1.5" transform="rotate(-22, 114, 248)"/>
  <ellipse cx="110" cy="245" rx="4.5" ry="2" fill="none" stroke="#222222" stroke-width="1" transform="rotate(-22, 110, 245)"/>
  <ellipse cx="118" cy="246" rx="3.5" ry="2" fill="none" stroke="#222222" stroke-width="1" transform="rotate(-22, 118, 246)"/>

  <!-- Front right leg extended back -->
  <path d="M 140 192
           L 152 245
           Q 152 253 160 253
           L 168 253
           Q 176 253 176 245
           L 176 192"
        fill="none" stroke="#222222" stroke-width="2.5" transform="rotate(28, 152, 222)"/>

  <ellipse cx="157" cy="253" rx="9" ry="4" fill="none" stroke="#222222" stroke-width="1.5" transform="rotate(28, 157, 253)"/>
  <ellipse cx="162" cy="250" rx="4.5" ry="2" fill="none" stroke="#222222" stroke-width="1" transform="rotate(28, 162, 250)"/>
  <ellipse cx="152" cy="251" rx="3.5" ry="2" fill="none" stroke="#222222" stroke-width="1" transform="rotate(28, 152, 251)"/>

  <!-- Back left leg extended back -->
  <path d="M 168 197
           L 180 245
           Q 180 253 188 253
           L 196 253
           Q 204 253 204 245
           L 204 197"
        fill="none" stroke="#222222" stroke-width="2.5" transform="rotate(12, 180, 225)"/>

  <ellipse cx="188" cy="253" rx="9" ry="4" fill="none" stroke="#222222" stroke-width="1.5" transform="rotate(12, 188, 253)"/>
  <ellipse cx="193" cy="250" rx="4.5" ry="2" fill="none" stroke="#222222" stroke-width="1" transform="rotate(12, 193, 250)"/>
  <ellipse cx="183" cy="251" rx="3.5" ry="2" fill="none" stroke="#222222" stroke-width="1" transform="rotate(12, 183, 251)"/>

  <!-- Back right leg extended forward -->
  <path d="M 185 193
           L 178 242
           Q 178 250 186 250
           L 194 250
           Q 202 250 202 242
           L 202 193"
        fill="none" stroke="#222222" stroke-width="2.5" transform="rotate(-12, 194, 222)"/>

  <ellipse cx="183" cy="250" rx="9" ry="4" fill="none" stroke="#222222" stroke-width="1.5" transform="rotate(-12, 183, 250)"/>
  <ellipse cx="187" cy="247" rx="4.5" ry="2" fill="none" stroke="#222222" stroke-width="1" transform="rotate(-12, 187, 247)"/>
  <ellipse cx="179" cy="248" rx="3.5" ry="2" fill="none" stroke="#222222" stroke-width="1" transform="rotate(-12, 179, 248)"/>

  <!-- Tail dynamic -->
  <path d="M 62 150
           Q 45 145 38 162
           Q 30 180 48 185
           Q 62 180 58 168
           Q 54 158 62 150"
        fill="none" stroke="#222222" stroke-width="2.5" stroke-linecap="round"/>

  <!-- Tail motion blur -->
  <path d="M 48 168 Q 44 172 45 168" fill="none" stroke="#222222" stroke-width="1" opacity="0.3"/>
  <path d="M 40 178 Q 44 182 46 178" fill="none" stroke="#222222" stroke-width="1" opacity="0.3"/>
</svg>